<svg xmlns="http://www.w3.org/2000/svg" viewBox="0 0 1008 650" fill="#9ca3af" opacity="0.6">
  <path d="M490.4 20.8c-6.8 2-12.7 6.4-15.6 11.6-4.5 8 2.2 14.5 9.8 9.5 7.4-4.8 11.8-13.6 8.3-19.3-2.1-3.3-7.5-6.7-10.8-7.5-4-.9-6.9 1-9.9 5.3s-4.3 12.5-3.1 18.2c2.4 11 15 15.6 24 8.7 8.3-6.4 8.8-19.6 1-25.1-6.1-4.3-16.1-4.7-23.7-.8M163.7 93.9c-11.4 3.7-21.6 15-24.6 27.2-2.1 8.5-1.5 17.6 1.7 26.1 4.3 11.6 12.8 20.4 23.3 24.3 9.4 3.4 21.6 2 30-3.6 14.6-9.6 18.7-30.8 8.8-45-7.3-10.5-22.3-14.5-35.1-9h-4.1M373.9 104.9c-8.5 2.5-15.6 9-20.1 18.1-4.2 8.4-4.2 21.3.1 30.2 4.6 9.6 11.3 15.6 20.5 18.6 11.3 3.6 25-.3 32.5-9.3 12.6-15 11.6-38-2.2-51.5-8.5-8.3-19.6-10.6-30.8-6.1M228.6 182.2c-5.9 2.5-11.4 8-15.3 15.2-12.2 22.4-1.6 48.7 19.9 49.3 28.5.8 45.4-32.9 22.8-55.6-7.8-7.8-18.4-10.5-27.4-8.9M129.5 242.4c-9.5 3-17.7 10-22.9 19.3-12.8 23 2.6 51 25.4 46.1 27.2-5.9 33.7-41.2 9.6-58.8-3.4-2.5-8.9-5-12.1-6.6zM286 288.5c-7 2.4-12.5 8.3-16.2 17.4-6.4 15.9-2.5 32 10.3 42 16.1 12.5 40.1 6.5 45-11.2 5.5-19.6-16-36-39.1-28.2M137 348.8c-10.2 3.6-18.7 12-22.7 22.4-7.5 19.5 2 40.6 18.5 41.1 23.1.6 37.8-21.7 26.7-40.4-3.6-6-10.7-11.2-16.5-12.1-6-1-16.5.6-22.5 3zM286.5 411.3c-6.8 2.6-12.3 8-15.9 15.8-6.1 13.5-3.3 28.7 7.2 39 12 11.8 30.6 11.3 41.6-1.1 11.3-12.8 7-34.9-8.4-43.5-7.7-4.3-16.1-5-24.5-1.2h.5M445.5 120.3c-10.5 4.1-18.8 13.6-22 25.1-3 10.6-.7 23.1 6 31.8 11.2 14.8 30.5 15.5 42.4 1.5 6.7-7.8 8.8-19.7 5.2-30-3.3-9.5-10.5-17.5-19.8-22-3.8-1.8-8-2.6-11.8-2.6M642.1 118.8c-10 3.7-18.1 12.1-22 22.5-3.8 10.3-2 22.9 4.8 31.5 5 6.3 12.7 10.8 20.3 11.9 13.6 2 28.2-5.7 34-18 6.6-14 3-30.7-8.6-39.7-8-6.2-18-9.2-28.5-8.2M531.6 195.9c-10 3-18.4 10.6-22.8 20.6-7.8 17.5-3.2 37.1 11.7 49 19.3 15.4 49 4.5 53-20.1 3.5-22.4-18.6-43.5-41.9-42M734.9 198.5c-9.5 3.3-17.5 10.7-22 20.6-4.6 10-4.6 22 0 32.1 6.5 14 20.4 22 34.6 20 18.2-2.5 31.8-19.1 27.6-33.8-4.2-14.6-18.5-25.7-32.9-25.7M446.5 292.5c-11.8 4-21 14.2-24.4 27-3 11.3-1 25.1 5.3 34.4 9 13.3 23.5 19.5 38.6 16.5 16-3.2 27.4-16.6 27.4-32.4 0-14.7-11-28.6-26-33.5-7-2.3-14-3.3-20.9-2M661 270.2c-9.4 3-17.3 10-22.1 19.4-4.8 9.5-4.8 21.6 0 31.2 6.1 12.4 17.7 19.6 30.8 19.2 15.5-.4 28-11.6 30-26.8 2.2-16.6-8.1-32.4-23.7-36.4M543 381.5c-9.7 3.4-18 11.2-22.6 21-4.8 10.3-4.1 23.2 1.7 32.8 7.3 12 19.9 19 33.3 18.4 12.3-.5 23-6.5 29.5-16.6 5.8-9 6.5-21 .1-30.8-7.3-11.3-20.3-18-33.5-17.4-2.8.1-5.6.7-8.5-2.6h0z"/>
</svg>
